<svg xmlns="http://www.w3.org/2000/svg" width="512" height="512" viewBox="0 0 512 512" role="img" aria-label="GOALIE">
<title>GOALIE</title><defs><linearGradient id="bg" x1="0" y1="0" x2="1" y2="1"><stop offset="0" stop-color="#16294A"/><stop offset="1" stop-color="#0A1422"/></linearGradient></defs><g transform="translate(0 0) scale(1.0)">
  <rect width="512" height="512" rx="112" fill="url(#bg)"/>
  <g stroke="#8FA3BF" stroke-opacity=".38" stroke-width="6"><line x1="160" y1="150" x2="160" y2="392"/><line x1="200" y1="150" x2="200" y2="392"/><line x1="240" y1="150" x2="240" y2="392"/><line x1="280" y1="150" x2="280" y2="392"/><line x1="320" y1="150" x2="320" y2="392"/><line x1="360" y1="150" x2="360" y2="392"/><line x1="120" y1="188" x2="392" y2="188"/><line x1="120" y1="228" x2="392" y2="228"/><line x1="120" y1="268" x2="392" y2="268"/><line x1="120" y1="308" x2="392" y2="308"/><line x1="120" y1="348" x2="392" y2="348"/><line x1="120" y1="388" x2="392" y2="388"/></g>
  <path d="M88 392 H424" stroke="#F4F7FB" stroke-opacity=".3" stroke-width="10" stroke-linecap="round"/>
  <path d="M120 392 V148 H392 V392" fill="none" stroke="#F4F7FB" stroke-width="30" stroke-linecap="round" stroke-linejoin="round"/>
  <circle cx="300" cy="322" r="44" fill="#22C55E"/>
  <circle cx="286" cy="308" r="12" fill="#FFFFFF" fill-opacity=".35"/>
</g></svg>